HIERARCHY
ROOT Hips
{
	OFFSET -3.958830 18.904000 13.208200
	CHANNELS 6 Xposition Yposition Zposition Zrotation Yrotation Xrotation 
	JOINT LHipJoint
	{
		OFFSET 0.000000 0.000000 0.000000
		CHANNELS 3 Zrotation Yrotation Xrotation
		JOINT LeftUpLeg
		{
			OFFSET 1.800000 -1.400000 0.085000
			CHANNELS 3 Zrotation Yrotation Xrotation
			JOINT LeftLeg
			{
				OFFSET 2.215000 -6.000000 0.000000
				CHANNELS 3 Zrotation Yrotation Xrotation
				JOINT LeftFoot
				{
					OFFSET 2.500000 -6.900000 0.000000
					CHANNELS 3 Zrotation Yrotation Xrotation
					JOINT LeftToeBase
					{
						OFFSET 0.200000 -0.500000 1.950000
						CHANNELS 3 Zrotation Yrotation Xrotation
						End Site
						{
							OFFSET 0.000000 0.000000 0.000000
						}
					}
				}
			}
		}
	}
	JOINT RHipJoint
	{
		OFFSET 0.000000 0.000000 0.000000
		CHANNELS 3 Zrotation Yrotation Xrotation
		JOINT RightUpLeg
		{
			OFFSET -1.800000 -1.400000 0.085000
			CHANNELS 3 Zrotation Yrotation Xrotation
			JOINT RightLeg
			{
				OFFSET -2.215000 -6.000000 0.000000
				CHANNELS 3 Zrotation Yrotation Xrotation
				JOINT RightFoot
				{
					OFFSET -2.500000 -6.900000 0.000000
					CHANNELS 3 Zrotation Yrotation Xrotation
					JOINT RightToeBase
					{
						OFFSET -0.200000 -0.500000 1.950000
						CHANNELS 3 Zrotation Yrotation Xrotation
						End Site
						{
							OFFSET 0.000000 0.000000 0.000000
						}
					}
				}
			}
		}
	}
	JOINT LowerBack
	{
		OFFSET 0.000000 0.000000 0.000000
		CHANNELS 3 Zrotation Yrotation Xrotation
		JOINT Spine
		{
			OFFSET -0.087000 1.940000 -0.288900
			CHANNELS 3 Zrotation Yrotation Xrotation
			JOINT Spine1
			{
				OFFSET 0.000000 1.950000 0.060000
				CHANNELS 3 Zrotation Yrotation Xrotation
				JOINT Neck
				{
					OFFSET 0.000000 0.000000 0.000000
					CHANNELS 3 Zrotation Yrotation Xrotation
					JOINT Neck1
					{
						OFFSET 0.000000 1.600000 0.340000
						CHANNELS 3 Zrotation Yrotation Xrotation
						JOINT Head
						{
							OFFSET 0.000000 1.667000 -0.240000
							CHANNELS 3 Zrotation Yrotation Xrotation
							End Site
							{
								OFFSET 0.000000 0.000000 0.000000
							}
						}
					}
				}
				JOINT LeftShoulder
				{
					OFFSET 0.000000 0.000000 0.000000
					CHANNELS 3 Zrotation Yrotation Xrotation
					JOINT LeftArm
					{
						OFFSET 2.700000 1.550000 -0.730000
						CHANNELS 3 Zrotation Yrotation Xrotation
						JOINT LeftForeArm
						{
							OFFSET 5.450000 0.000000 0.000000
							CHANNELS 3 Zrotation Yrotation Xrotation
							JOINT LeftHand
							{
								OFFSET 3.450000 0.000000 0.000000
								CHANNELS 3 Zrotation Yrotation Xrotation
								JOINT LeftHandIndex1
								{
									OFFSET 0.750000 0.000000 0.000000
									CHANNELS 3 Zrotation Yrotation Xrotation
									End Site
									{
										OFFSET 0.000000 0.000000 0.000000
									}
								}
							}
						}
					}
				}
				JOINT RightShoulder
				{
					OFFSET 0.000000 0.000000 0.000000
					CHANNELS 3 Zrotation Yrotation Xrotation
					JOINT RightArm
					{
						OFFSET -2.700000 1.550000 -0.730000
						CHANNELS 3 Zrotation Yrotation Xrotation
						JOINT RightForeArm
						{
							OFFSET -5.450000 0.000000 0.000000
							CHANNELS 3 Zrotation Yrotation Xrotation
							JOINT RightHand
							{
								OFFSET -3.450000 0.000000 0.000000
								CHANNELS 3 Zrotation Yrotation Xrotation
								JOINT RightHandIndex1
								{
									OFFSET -0.750000 0.000000 0.000000
									CHANNELS 3 Zrotation Yrotation Xrotation
									End Site
									{
										OFFSET 0.000000 0.000000 0.000000
									}
								}
							}
						}
					}
				}
			}
		}
	}
}
MOTION
Frames: 6
Frame Time: 0.016667
-7.973680 16.762710 -13.239120 2.025522 21.344498 -6.130664 -15.489489 13.585231 4.555710 25.396786 -2.438817 -21.711396 -11.952557 6.055356 7.005406 -0.168693 5.083109 2.481691 0.258850 0.013730 0.602020 17.825614 -10.089331 1.734031 -17.839217 -1.573801 0.940867 4.145252 -6.101652 13.393319 -0.504034 -4.192089 2.794224 -0.026830 -0.245690 0.117540 -2.866642 -5.133231 -8.274566 2.604246 -2.232714 28.893126 -1.879582 0.304684 6.417830 0.611844 -7.136431 -18.526006 -22.440695 21.755014 29.114665 -8.517530 22.497210 -18.058740 -14.302120 -24.289152 6.262112 0.937138 -14.237566 -9.126237 34.005352 -16.258131 -6.385422 -3.884842 3.021430 0.584230 -0.159580 0.237430 -0.175520 15.103580 25.367705 14.326907 33.894728 -8.518638 -10.526176 -40.327298 -0.614786 0.036701 2.829786 -1.734142 -0.147460 -0.063080 -0.072360 -0.366060 
-7.823770 16.803870 -13.133010 2.012241 22.227709 -3.353995 -15.549133 13.513887 4.806601 25.286805 -2.940184 -23.658811 -14.094953 6.421391 7.537024 -0.103338 5.243000 2.431764 0.180560 -0.096130 0.522980 17.779837 -10.018271 1.707465 -17.198451 -1.414014 0.312510 2.439697 -5.484624 12.500695 -0.447220 -3.939976 2.909631 -0.106430 -0.198540 0.095770 -2.750534 -5.347816 -8.353346 2.503628 -2.494351 27.017860 -1.501477 -0.069554 -2.088833 1.569123 -7.190543 -16.644236 -23.044568 22.790317 30.846640 -5.149380 22.591390 -14.110450 -15.979919 -16.433891 5.705177 -3.448501 -10.024194 -6.173711 34.844407 -18.543706 -6.208651 -3.735220 2.947425 0.601370 -0.173830 0.205530 -0.167440 16.097319 18.124207 11.734908 36.848549 -11.932479 -9.817408 -39.779155 -0.888045 1.630715 2.886779 -1.629157 -0.171260 -0.066570 -0.039190 -0.347350 
-7.653040 16.858820 -12.992620 2.131674 22.756021 0.496743 -15.620914 13.359961 5.166939 25.064605 -3.445042 -25.558479 -16.657052 6.395320 6.045024 0.002609 5.326215 2.419002 0.129400 -0.158030 0.465850 17.722657 -9.942832 1.632306 -16.674264 -1.072716 -1.424516 0.975227 -4.894898 12.210971 -0.374772 -3.627099 3.042898 -0.166120 -0.168860 0.074120 -2.611711 -5.478187 -8.456926 2.501247 -2.411334 23.630372 -0.699160 -0.253315 -10.816915 2.328884 -7.486991 -14.216122 -24.043257 23.675179 31.953944 -2.929390 22.565080 -10.782390 -15.918381 -7.445621 3.392380 -7.242619 -7.472131 -3.313201 32.996618 -21.297377 -5.346940 -3.605059 2.878052 0.594660 -0.186740 0.188350 -0.154050 15.718051 9.640196 9.345204 38.762382 -16.656151 -9.395509 -40.723662 2.520999 1.992540 2.939298 -1.540008 -0.170230 -0.070950 -0.031670 -0.319160 
-7.468880 16.925640 -12.852710 2.192307 24.655685 3.955750 -15.667936 13.319138 5.340841 23.743781 -4.018107 -28.206378 -17.818393 6.429885 6.099893 0.051269 5.202334 2.513143 0.081020 -0.190460 0.376980 17.672964 -9.938718 1.632873 -15.930438 -0.828627 -2.474054 -0.104769 -4.432927 11.944462 -0.312355 -3.438923 3.158559 -0.190380 -0.082110 0.032390 -2.568801 -5.577421 -8.488457 2.887291 -2.915855 20.079509 -0.082214 -0.981908 -17.359100 2.736089 -7.841018 -12.365388 -24.618692 24.301429 31.666955 0.389830 21.749890 -6.424280 -14.365430 0.230886 1.571402 -10.551585 -4.192622 -1.649492 33.154727 -22.321156 -4.681904 -3.579185 2.841845 0.551570 -0.163350 0.139510 -0.108800 14.275950 2.106128 7.457422 38.366801 -21.339490 -8.844825 -39.773345 7.503105 1.514588 2.984241 -1.459287 -0.188480 -0.030130 -0.030420 -0.267520 
-7.262900 16.996220 -12.713340 1.608867 26.532058 7.170168 -15.720702 13.264729 5.487914 22.308574 -4.348121 -31.163492 -18.379785 6.488138 6.312099 0.086172 5.044287 2.624229 0.018050 -0.237740 0.259910 17.627486 -9.931863 1.656563 -14.586508 -0.406925 -3.685830 -1.295883 -3.849482 11.664733 -0.223037 -3.223258 3.299078 -0.214240 0.028170 -0.021690 -2.524606 -5.585758 -8.520655 3.780510 -3.171812 16.681780 1.171002 -1.093387 -23.012360 2.905734 -8.745486 -10.774530 -25.133401 24.646182 29.369826 4.171160 20.120500 -2.515210 -11.596384 7.884385 0.520874 -14.389464 2.289158 -0.680416 32.682948 -26.533256 -4.553575 -3.568805 2.836793 0.499360 -0.134640 0.065310 -0.062590 11.876655 -4.427106 5.929387 36.489431 -25.050162 -8.111732 -39.821186 13.257797 0.881204 3.040112 -1.418596 -0.219120 0.025500 -0.013320 -0.208290 
-7.055510 17.075930 -12.598940 0.981982 29.739301 8.077604 -15.774191 13.389821 5.450742 20.157722 -4.715814 -32.271210 -17.865278 6.290110 6.587763 0.115187 4.704897 2.768338 0.009140 -0.216940 0.217210 17.538054 -9.975993 1.765941 -13.244184 -0.441842 -2.776066 -2.331681 -3.530838 11.384187 -0.232354 -3.202329 3.341588 -0.224490 0.046090 -0.042890 -2.432416 -5.737778 -8.546021 4.498928 -3.527956 14.849729 2.373736 -1.080309 -26.006180 3.160529 -9.125590 -9.756837 -25.908934 24.858521 29.954706 5.833350 19.193430 -0.585750 -10.394184 12.550985 -0.516920 -15.416237 6.408536 -0.892663 29.455816 -24.310799 -3.031195 -3.579127 2.855647 0.467300 -0.142110 0.066230 -0.036540 10.335638 -8.256274 5.492097 34.270696 -30.266397 -7.899871 -37.585922 15.971832 0.719379 3.153432 -1.386046 -0.195530 0.034620 -0.031760 -0.164600 
